<?xml version="1.0" encoding="UTF-8"?>
<!DOCTYPE svg PUBLIC "-//W3C//DTD SVG 1.1//EN" "http://www.w3.org/Graphics/SVG/1.1/DTD/svg11.dtd">
<!-- Creator: CorelDRAW 2020 (64-Bit) -->
<svg xmlns="http://www.w3.org/2000/svg" xml:space="preserve" width="8.5in" height="11in" version="1.1" style="shape-rendering:geometricPrecision; text-rendering:geometricPrecision; image-rendering:optimizeQuality; fill-rule:evenodd; clip-rule:evenodd"
viewBox="0 0 850000 1100000"
 xmlns:xlink="http://www.w3.org/1999/xlink"
 xmlns:xodm="http://www.corel.com/coreldraw/odm/2003">
 <defs>
  <style type="text/css">
   <![CDATA[
    .str0 {stroke:#031D32;stroke-width:5556;stroke-miterlimit:2.61313}
    .str1 {stroke:red;stroke-width:4167;stroke-miterlimit:2.61313}
    .fil0 {fill:#031D32;fill-rule:nonzero}
    .fil1 {fill:red;fill-rule:nonzero}
    .fil2 {fill:red;fill-rule:nonzero}
   ]]>
  </style>
 </defs>
 <g id="Capa_x0020_1">
  <metadata id="CorelCorpID_0Corel-Layer"/>
  <g id="_2604035973664">
   <path class="fil0 str0" d="M206681 516859c-3311,-3415 -6546,-5925 -9702,-7529 -3156,-1604 -6546,-2406 -10168,-2406 -5899,0 -10556,2406 -13972,7219 -3415,4812 -5123,11410 -5123,19793 0,4036 414,7736 1242,11099 828,3364 2070,6261 3726,8694 1656,2432 3700,4320 6132,5666 2432,1345 5252,2018 8460,2018 3830,0 7063,-854 9702,-2561 2639,-1708 5563,-4217 8771,-7529l10246 10091c-1552,2070 -3260,4010 -5123,5821 -1863,1811 -3959,3415 -6287,4812 -2328,1397 -4942,2510 -7839,3338 -2898,828 -6209,1242 -9935,1242 -4968,0 -9599,-1009 -13894,-3027 -4295,-2018 -8020,-4864 -11177,-8538 -3156,-3674 -5640,-8098 -7451,-13273 -1811,-5175 -2717,-10970 -2717,-17387 0,-6727 931,-12730 2794,-18008 1863,-5278 4398,-9754 7607,-13428 3208,-3674 6986,-6468 11332,-8383 4347,-1915 9004,-2872 13971,-2872 6003,0 11358,1164 16067,3493 4709,2328 8978,5770 12807,10323l-9470 11332zm73894 58059l0 -8072c-2794,2794 -6106,5123 -9935,6986 -3829,1863 -7969,2794 -12419,2794 -3312,0 -6650,-491 -10013,-1475 -3363,-983 -6391,-2561 -9081,-4735 -2691,-2173 -4890,-5019 -6597,-8538 -1708,-3519 -2561,-7762 -2561,-12729 0,-4554 828,-8487 2483,-11798 1656,-3311 3933,-6054 6831,-8228 2898,-2173 6313,-3777 10246,-4812 3933,-1035 8228,-1552 12885,-1552 7452,0 13506,1035 18163,3105l0 -6054c0,-4450 -1320,-7865 -3959,-10246 -2639,-2380 -6443,-3570 -11410,-3570 -4243,0 -8047,414 -11410,1242 -3363,828 -6649,2122 -9857,3881l-6209 -12109c3933,-2380 8124,-4191 12574,-5433 4450,-1242 9573,-1863 15369,-1863 9107,0 16481,2251 22122,6753 5640,4502 8460,11358 8460,20569l0 55885 -15679 0zm0 -34773c-2174,-1139 -4735,-2018 -7684,-2639 -2950,-621 -6598,-931 -10944,-931 -5174,0 -9263,1087 -12264,3260 -3001,2174 -4502,5123 -4502,8849 0,4036 1294,7296 3881,9780 2587,2484 6520,3726 11798,3726 4347,0 8254,-1087 11720,-3260 3467,-2174 6132,-4554 7995,-7141l0 -11643zm107269 -4657c0,7037 -880,13117 -2639,18241 -1759,5123 -4139,9392 -7089,12807 -2950,3415 -6391,5951 -10272,7606 -3907,1656 -7969,2484 -12238,2484 -4140,0 -8046,-931 -11669,-2794 -3622,-1863 -6598,-4036 -8874,-6520l0 29340 -15834 8228 0 -111461 15834 0 26 7762c3027,-2691 6235,-4942 9650,-6753 3441,-1811 7322,-2717 11669,-2717 4372,0 8460,828 12290,2484 3855,1656 7193,4243 10039,7762 2872,3519 5097,8046 6701,13583 1604,5537 2406,12186 2406,19948zm-16144 466c0,-10349 -1578,-17852 -4735,-22509 -3157,-4657 -7684,-6986 -13583,-6986 -3829,0 -7348,1061 -10556,3182 -3208,2122 -5847,4528 -7917,7219l0 34307c931,1242 2070,2484 3415,3726 1346,1242 2846,2380 4502,3415 1656,1035 3415,1889 5278,2561 1863,673 3829,1009 5899,1009 5796,0 10194,-2147 13195,-6442 3001,-4295 4502,-10789 4502,-19482zm81500 38965l0 -8072c-2794,2794 -6106,5123 -9935,6986 -3829,1863 -7969,2794 -12419,2794 -3312,0 -6650,-491 -10013,-1475 -3363,-983 -6391,-2561 -9081,-4735 -2691,-2173 -4890,-5019 -6597,-8538 -1708,-3519 -2561,-7762 -2561,-12729 0,-4554 828,-8487 2483,-11798 1656,-3311 3933,-6054 6831,-8228 2898,-2173 6313,-3777 10246,-4812 3933,-1035 8228,-1552 12885,-1552 7452,0 13506,1035 18163,3105l0 -6054c0,-4450 -1320,-7865 -3959,-10246 -2639,-2380 -6443,-3570 -11410,-3570 -4243,0 -8047,414 -11410,1242 -3363,828 -6649,2122 -9857,3881l-6209 -12109c3933,-2380 8124,-4191 12574,-5433 4450,-1242 9573,-1863 15369,-1863 9107,0 16481,2251 22122,6753 5640,4502 8460,11358 8460,20569l0 55885 -15679 0zm0 -34773c-2174,-1139 -4735,-2018 -7684,-2639 -2950,-621 -6598,-931 -10944,-931 -5174,0 -9263,1087 -12264,3260 -3001,2174 -4502,5123 -4502,8849 0,4036 1294,7296 3881,9780 2587,2484 6520,3726 11798,3726 4347,0 8254,-1087 11720,-3260 3467,-2174 6132,-4554 7995,-7141l0 -11643zm89882 -23286c-3311,-3415 -6546,-5925 -9702,-7529 -3156,-1604 -6546,-2406 -10168,-2406 -5899,0 -10556,2406 -13972,7219 -3415,4812 -5123,11410 -5123,19793 0,4036 414,7736 1242,11099 828,3364 2070,6261 3726,8694 1656,2432 3700,4320 6132,5666 2432,1345 5252,2018 8460,2018 3830,0 7063,-854 9702,-2561 2639,-1708 5563,-4217 8771,-7529l10246 10091c-1552,2070 -3260,4010 -5123,5821 -1863,1811 -3959,3415 -6287,4812 -2328,1397 -4942,2510 -7839,3338 -2898,828 -6209,1242 -9935,1242 -4968,0 -9599,-1009 -13894,-3027 -4295,-2018 -8020,-4864 -11177,-8538 -3156,-3674 -5640,-8098 -7451,-13273 -1811,-5175 -2717,-10970 -2717,-17387 0,-6727 931,-12730 2794,-18008 1863,-5278 4398,-9754 7607,-13428 3208,-3674 6986,-6468 11332,-8383 4347,-1915 9004,-2872 13971,-2872 6003,0 11358,1164 16067,3493 4709,2328 8978,5770 12807,10323l-9470 11332zm110685 56041c-1966,1139 -4269,2044 -6908,2717 -2639,673 -5563,1009 -8771,1009 -5692,0 -10168,-1759 -13428,-5278 -3260,-3493 -4890,-8926 -4890,-16248l0 -46934 -11643 0 0 -14748 11643 0 0 -23285 15679 -8383 0 31669 20181 0 0 14748 -20181 0 0 43984c0,3803 646,6391 1940,7710 1294,1345 3441,2018 6443,2018 2070,0 4191,-310 6365,-957 2174,-647 3985,-1371 5433,-2148l-1863 14127z"/>
   <g>
    <path class="fil1 str1" d="M694546 472948c0,2794 -1009,5200 -3027,7219 -2018,2018 -4424,3027 -7219,3027 -2898,0 -5356,-1009 -7374,-3027 -2018,-2018 -3027,-4424 -3027,-7219 0,-2898 1009,-5356 3027,-7374 2018,-2018 4476,-3027 7374,-3027 2794,0 5200,1009 7219,3027 2018,2018 3027,4476 3027,7374zm-18318 102302l0 -81500 16144 0 0 81500 -16144 0z"/>
    <path class="fil1 str1" d="M588546 472948c0,2794 -1009,5200 -3027,7219 -2018,2018 -4424,3027 -7219,3027 -2898,0 -5356,-1009 -7374,-3027 -2018,-2018 -3027,-4424 -3027,-7219 0,-2898 1009,-5356 3027,-7374 2018,-2018 4476,-3027 7374,-3027 2794,0 5200,1009 7219,3027 2018,2018 3027,4476 3027,7374zm-18318 102302l0 -81500 16144 0 0 81500 -16144 0z"/>
    <path class="fil2 str1" d="M677672 448421c0,-20376 -19334,-36904 -43170,-36904 -23836,0 -43170,16528 -43170,36904 -4796,0 -9594,0 -14390,0 0,-27169 25779,-49206 57560,-49206 31781,0 57560,22037 57560,49206 -4796,0 0,0 -14390,0z"/>
   </g>
  </g>
 </g>
</svg>
